<svg width="140" height="140" viewBox="0 0 140 140" fill="none" xmlns="http://www.w3.org/2000/svg">
<path d="M70 11.6667C37.835 11.6667 11.6667 37.835 11.6667 70C11.6667 102.165 37.835 128.333 70 128.333C102.165 128.333 128.333 102.165 128.333 70C128.333 37.835 102.165 11.6667 70 11.6667ZM70 116.667C44.2692 116.667 23.3334 95.7308 23.3334 70C23.3334 44.2692 44.2692 23.3333 70 23.3333C95.7308 23.3333 116.667 44.2692 116.667 70C116.667 95.7308 95.7308 116.667 70 116.667Z" fill="#353741"/>
<path d="M75.8334 40.8333H64.1667V72.415L83.3759 91.6242L91.6242 83.3758L75.8334 67.585V40.8333Z" fill="#353741"/>
</svg>
