<svg width="43" height="43" viewBox="0 0 43 43" fill="none" xmlns="http://www.w3.org/2000/svg">
<path d="M16.4332 29.1003L21.5 24.0334L26.5668 29.1003L29.1003 26.5668L24.0334 21.5L29.1003 16.4332L26.5668 13.8997L21.5 18.9666L16.4332 13.8997L13.8997 16.4332L18.9666 21.5L13.8997 26.5668L16.4332 29.1003Z" fill="#E92929"/>
<path d="M21.5 39.4167C31.3793 39.4167 39.4167 31.3792 39.4167 21.5C39.4167 11.6207 31.3793 3.58333 21.5 3.58333C11.6208 3.58333 3.58334 11.6207 3.58334 21.5C3.58334 31.3792 11.6208 39.4167 21.5 39.4167ZM21.5 7.16666C29.4031 7.16666 35.8333 13.597 35.8333 21.5C35.8333 29.403 29.4031 35.8333 21.5 35.8333C13.597 35.8333 7.16668 29.403 7.16668 21.5C7.16668 13.597 13.597 7.16666 21.5 7.16666Z" fill="#E92929"/>
</svg>
